<svg width="64" height="89" xmlns="http://www.w3.org/2000/svg" xmlns:xlink="http://www.w3.org/1999/xlink" xml:space="preserve" overflow="hidden"><defs><clipPath id="clip0"><rect x="1168" y="503" width="64" height="89"/></clipPath></defs><g clip-path="url(#clip0)" transform="translate(-1168 -503)"><path d="M733.994 536.701 766.377 546.276 767.753 542.961 737.621 527.862Z" fill-rule="evenodd" transform="matrix(1.00906 0 0 1 457.29 7.36207)"/><path d="M739.621 584.638 735.994 533.489 731.866 533.489 728.368 584.515Z" fill-rule="evenodd" transform="matrix(1.00906 0 0 1 457.29 7.36207)"/><path d="M739.109 528.164 731.483 495.638 727.856 496.131 729.483 529.397Z" fill-rule="evenodd" transform="matrix(1.00906 0 0 1 457.29 7.36207)"/><path d="M729.053 528.374 704.328 551.104 706.563 553.948 735.017 536.036Z" fill-rule="evenodd" transform="matrix(1.00906 0 0 1 457.29 7.36207)"/><path d="M740.644 531.187C740.644 534.696 737.759 537.581 734.25 537.581 730.741 537.581 727.856 534.696 727.856 531.187 727.856 527.678 730.741 524.793 734.25 524.793 737.887 524.916 740.644 527.678 740.644 531.187Z" fill-rule="evenodd" transform="matrix(1.00906 0 0 1 457.29 7.36207)"/></g></svg>